<svg width="420" height="601" viewBox="0 0 420 601" fill="none" xmlns="http://www.w3.org/2000/svg">
<rect width="420" height="601" rx="15" fill="#FDF5EE"/>
<ellipse cx="210" cy="115.076" rx="60" ry="60.0198" fill="#F39A52"/>
<g filter="url(#filter0_d_1678_1353)">
<rect x="54" y="280" width="312" height="50" rx="25" fill="white"/>
</g>
<g filter="url(#filter1_d_1678_1353)">
<rect x="54" y="341" width="312" height="50" rx="25" fill="white"/>
</g>
<path d="M156.701 299.001V313.001H158.701V301.121H158.941L162.481 313.001H165.481L169.021 301.121H169.261V313.001H171.261V299.001H167.661L164.101 310.921H163.861L160.301 299.001H156.701Z" fill="black"/>
<path d="M181.423 303.201L178.403 310.641H178.163L175.143 303.201H173.103L177.283 313.181L175.623 317.001H177.663L183.463 303.201H181.423Z" fill="black"/>
<path d="M190.411 299.001L192.351 313.001H195.791L197.891 300.801H198.131L200.231 313.001H203.671L205.611 299.001H203.571L201.971 311.201H201.731L199.631 299.001H196.391L194.291 311.201H194.051L192.451 299.001H190.411Z" fill="black"/>
<path d="M206.646 308.021C206.646 310.981 208.726 313.281 211.766 313.281C214.106 313.281 215.366 311.981 216.106 310.781L214.526 309.881C214.006 310.921 213.166 311.641 211.726 311.641C209.966 311.641 208.726 310.541 208.606 308.781H216.326V307.841C216.326 305.001 214.406 302.881 211.526 302.881C208.686 302.881 206.646 305.141 206.646 308.021ZM208.606 307.261C208.746 305.521 209.806 304.521 211.526 304.521C213.246 304.521 214.326 305.581 214.366 307.261H208.606Z" fill="black"/>
<path d="M218.399 299.001V313.001H220.239V311.461H220.519C221.059 312.361 221.959 313.281 223.879 313.281C226.459 313.281 228.479 311.141 228.479 308.101C228.479 305.061 226.459 302.921 223.879 302.921C221.959 302.921 221.059 303.841 220.519 304.741H220.279V299.001H218.399ZM223.399 304.601C225.279 304.601 226.599 305.861 226.599 308.101C226.599 310.341 225.279 311.601 223.399 311.601C221.479 311.601 220.279 310.261 220.279 308.101C220.279 305.941 221.479 304.601 223.399 304.601Z" fill="black"/>
<path d="M230.367 305.821C230.367 307.681 231.827 308.401 234.027 308.721L234.847 308.841C235.907 309.001 237.167 309.081 237.167 310.101C237.167 311.061 236.167 311.681 234.767 311.681C233.167 311.681 231.907 310.781 231.287 309.301L229.607 310.201C230.367 311.641 231.927 313.281 234.707 313.281C237.227 313.281 239.027 312.001 239.027 310.041C239.027 308.001 237.287 307.461 235.067 307.141L234.247 307.021C233.187 306.861 232.227 306.761 232.227 305.801C232.227 304.961 233.047 304.481 234.147 304.481C235.307 304.481 236.487 305.021 237.567 306.421L238.967 305.421C237.427 303.701 236.107 302.921 234.107 302.921C232.107 302.921 230.367 303.961 230.367 305.821Z" fill="black"/>
<path d="M240.534 300.201C240.534 301.041 241.214 301.681 242.054 301.681C242.894 301.681 243.574 301.041 243.574 300.201C243.574 299.361 242.894 298.721 242.054 298.721C241.214 298.721 240.534 299.361 240.534 300.201ZM242.994 303.201H241.114V313.001H242.994V303.201Z" fill="black"/>
<path d="M244.682 303.201V304.841H247.402V311.321C247.402 312.321 248.082 313.001 249.042 313.001H251.602V311.361H249.802C249.442 311.361 249.282 311.201 249.282 310.801V304.841H252.162V303.201H249.282V299.801H247.402V303.201H244.682Z" fill="black"/>
<path d="M253.384 308.021C253.384 310.981 255.464 313.281 258.504 313.281C260.844 313.281 262.104 311.981 262.844 310.781L261.264 309.881C260.744 310.921 259.904 311.641 258.464 311.641C256.704 311.641 255.464 310.541 255.344 308.781H263.064V307.841C263.064 305.001 261.144 302.881 258.264 302.881C255.424 302.881 253.384 305.141 253.384 308.021ZM255.344 307.261C255.484 305.521 256.544 304.521 258.264 304.521C259.984 304.521 261.064 305.581 261.104 307.261H255.344Z" fill="black"/>
<path d="M145.158 359.586C142.558 359.586 140.478 361.086 140.478 363.466C140.478 366.066 142.298 367.006 144.798 367.546L145.718 367.746C147.498 368.126 148.398 368.666 148.398 370.006C148.398 371.346 147.278 372.346 145.418 372.346C143.118 372.346 141.838 371.126 141.838 368.906V368.426H139.838V369.066C139.838 372.146 141.978 374.146 145.398 374.146C148.278 374.146 150.398 372.526 150.398 369.946C150.398 367.546 148.818 366.426 146.218 365.866L145.298 365.666C143.318 365.226 142.478 364.726 142.478 363.446C142.478 362.206 143.598 361.386 145.158 361.386C146.998 361.386 148.278 362.346 148.278 364.146V364.626H150.278V363.986C150.278 361.126 148.058 359.586 145.158 359.586Z" fill="black"/>
<path d="M152.668 377.866H154.548V372.326H154.788C155.328 373.226 156.228 374.146 158.148 374.146C160.728 374.146 162.748 372.006 162.748 368.966C162.748 365.926 160.728 363.786 158.148 363.786C156.228 363.786 155.328 364.706 154.788 365.606H154.508V364.066H152.668V377.866ZM157.668 372.466C155.748 372.466 154.548 371.126 154.548 368.966C154.548 366.806 155.748 365.466 157.668 365.466C159.548 365.466 160.868 366.726 160.868 368.966C160.868 371.206 159.548 372.466 157.668 372.466Z" fill="black"/>
<path d="M164.274 368.966C164.274 372.006 166.434 374.146 169.314 374.146C172.194 374.146 174.354 372.006 174.354 368.966C174.354 365.926 172.194 363.786 169.314 363.786C166.434 363.786 164.274 365.926 164.274 368.966ZM166.154 368.966C166.154 366.806 167.434 365.506 169.314 365.506C171.194 365.506 172.474 366.806 172.474 368.966C172.474 371.126 171.194 372.426 169.314 372.426C167.434 372.426 166.154 371.126 166.154 368.966Z" fill="black"/>
<path d="M175.298 364.066V365.706H178.018V372.186C178.018 373.186 178.698 373.866 179.658 373.866H182.218V372.226H180.418C180.058 372.226 179.898 372.066 179.898 371.666V365.706H182.778V364.066H179.898V360.666H178.018V364.066H175.298Z" fill="black"/>
<path d="M184.159 361.066C184.159 361.906 184.839 362.546 185.679 362.546C186.519 362.546 187.199 361.906 187.199 361.066C187.199 360.226 186.519 359.586 185.679 359.586C184.839 359.586 184.159 360.226 184.159 361.066ZM186.619 364.066H184.739V373.866H186.619V364.066Z" fill="black"/>
<path d="M188.306 364.066V365.706H191.026V373.866H192.906V365.706H195.706V364.066H192.906V362.066C192.906 361.666 193.066 361.506 193.426 361.506H195.186V359.866H192.706C191.706 359.866 191.026 360.546 191.026 361.586V364.066H188.306Z" fill="black"/>
<path d="M204.715 364.066L201.695 371.506H201.455L198.435 364.066H196.395L200.575 374.046L198.915 377.866H200.955L206.755 364.066H204.715Z" fill="black"/>
<path d="M214.583 359.866V373.866H216.583V368.266H220.023C222.523 368.266 224.343 366.606 224.343 364.066C224.343 361.526 222.583 359.866 220.023 359.866H214.583ZM216.583 361.706H219.803C221.463 361.706 222.343 362.546 222.343 364.066C222.343 365.586 221.423 366.426 219.803 366.426H216.583V361.706Z" fill="black"/>
<path d="M228.142 359.866H226.262V373.866H228.142V359.866Z" fill="black"/>
<path d="M230.629 366.646L232.249 367.386C232.709 366.246 233.649 365.466 235.249 365.466C236.849 365.466 237.789 366.266 237.789 367.606V367.866L234.169 368.206C231.649 368.446 230.429 369.406 230.429 371.186C230.429 372.946 231.849 374.146 234.049 374.146C236.069 374.146 237.089 373.206 237.509 372.326H237.789V373.866H239.629V367.686C239.629 365.326 237.929 363.786 235.289 363.786C232.889 363.786 231.329 365.126 230.629 366.646ZM232.329 371.106C232.329 370.106 233.229 369.766 234.369 369.666L237.789 369.346V369.506C237.789 371.206 236.669 372.586 234.369 372.586C233.069 372.586 232.329 372.026 232.329 371.106Z" fill="black"/>
<path d="M249.129 364.066L246.109 371.506H245.869L242.849 364.066H240.809L244.989 374.046L243.329 377.866H245.369L251.169 364.066H249.129Z" fill="black"/>
<path d="M254.841 359.866H252.961V373.866H254.841V359.866Z" fill="black"/>
<path d="M257.069 361.066C257.069 361.906 257.749 362.546 258.589 362.546C259.429 362.546 260.109 361.906 260.109 361.066C260.109 360.226 259.429 359.586 258.589 359.586C257.749 359.586 257.069 360.226 257.069 361.066ZM259.529 364.066H257.649V373.866H259.529V364.066Z" fill="black"/>
<path d="M262.136 366.686C262.136 368.546 263.596 369.266 265.796 369.586L266.616 369.706C267.676 369.866 268.936 369.946 268.936 370.966C268.936 371.926 267.936 372.546 266.536 372.546C264.936 372.546 263.676 371.646 263.056 370.166L261.376 371.066C262.136 372.506 263.696 374.146 266.476 374.146C268.996 374.146 270.796 372.866 270.796 370.906C270.796 368.866 269.056 368.326 266.836 368.006L266.016 367.886C264.956 367.726 263.996 367.626 263.996 366.666C263.996 365.826 264.816 365.346 265.916 365.346C267.076 365.346 268.256 365.886 269.336 367.286L270.736 366.286C269.196 364.566 267.876 363.786 265.876 363.786C263.876 363.786 262.136 364.826 262.136 366.686Z" fill="black"/>
<path d="M271.763 364.066V365.706H274.483V372.186C274.483 373.186 275.163 373.866 276.123 373.866H278.683V372.226H276.883C276.523 372.226 276.363 372.066 276.363 371.666V365.706H279.243V364.066H276.363V360.666H274.483V364.066H271.763Z" fill="black"/>
<path d="M130.166 208.6L138.038 222.712V231H141.238V222.712L149.11 208.6H145.462L139.83 219H139.446L133.814 208.6H130.166Z" fill="#F39A52"/>
<path d="M148.032 223.16C148.032 228.024 151.488 231.448 156.096 231.448C160.704 231.448 164.16 228.024 164.16 223.16C164.16 218.296 160.704 214.872 156.096 214.872C151.488 214.872 148.032 218.296 148.032 223.16ZM151.04 223.16C151.04 219.704 153.088 217.624 156.096 217.624C159.104 217.624 161.152 219.704 161.152 223.16C161.152 226.616 159.104 228.696 156.096 228.696C153.088 228.696 151.04 226.616 151.04 223.16Z" fill="#F39A52"/>
<path d="M182.211 231V215.32H179.203V223.512C179.203 226.776 177.379 228.632 174.467 228.632C171.907 228.632 170.435 227.224 170.435 224.504V215.32H167.427V224.76C167.427 229.08 170.243 231.256 173.539 231.256C176.643 231.256 178.083 229.816 178.819 228.344H179.267V231H182.211Z" fill="#F39A52"/>
<path d="M189.561 215.32H186.681V231H189.689V221.848C189.689 219.48 190.905 218.2 193.145 218.2H195.897V215.256H194.105C191.833 215.256 190.553 216.216 190.009 217.88H189.561V215.32Z" fill="#F39A52"/>
<path d="M208.37 208.6V231H211.57V211.48H211.954L218.866 231H224.818V208.6H221.618V228.152H221.234L214.258 208.6H208.37Z" fill="#F39A52"/>
<path d="M228.857 219.448L231.449 220.632C232.185 218.808 233.689 217.56 236.249 217.56C238.809 217.56 240.313 218.84 240.313 220.984V221.4L234.521 221.944C230.489 222.328 228.537 223.864 228.537 226.712C228.537 229.528 230.809 231.448 234.329 231.448C237.561 231.448 239.193 229.944 239.865 228.536H240.313V231H243.257V221.112C243.257 217.336 240.537 214.872 236.313 214.872C232.473 214.872 229.977 217.016 228.857 219.448ZM231.577 226.584C231.577 224.984 233.017 224.44 234.841 224.28L240.313 223.768V224.024C240.313 226.744 238.521 228.952 234.841 228.952C232.761 228.952 231.577 228.056 231.577 226.584Z" fill="#F39A52"/>
<path d="M247.556 215.32V231H250.564V221.208C250.564 218.84 252.132 217.624 254.148 217.624C255.972 217.624 257.22 218.648 257.22 220.472V231H260.228V221.208C260.228 218.84 261.7 217.624 263.652 217.624C265.508 217.624 266.884 218.648 266.884 220.472V231H269.892V220.28C269.892 217.048 267.364 215.064 264.58 215.064C262.02 215.064 260.676 216.376 260.036 217.688H259.588C258.82 216.248 257.508 215.064 255.236 215.064C253.156 215.064 251.748 216.024 250.948 217.368H250.5V215.32H247.556Z" fill="#F39A52"/>
<path d="M273.157 223.032C273.157 227.768 276.485 231.448 281.349 231.448C285.093 231.448 287.109 229.368 288.293 227.448L285.765 226.008C284.933 227.672 283.589 228.824 281.285 228.824C278.469 228.824 276.485 227.064 276.293 224.248H288.645V222.744C288.645 218.2 285.573 214.808 280.965 214.808C276.421 214.808 273.157 218.424 273.157 223.032ZM276.293 221.816C276.517 219.032 278.213 217.432 280.965 217.432C283.717 217.432 285.445 219.128 285.509 221.816H276.293Z" fill="#F39A52"/>
<rect opacity="0.67" width="420" height="601" rx="15" fill="black"/>
<g filter="url(#filter2_d_1678_1353)">
<circle cx="144" cy="442" r="28" fill="white"/>
</g>
<path d="M153.818 441.61C153.719 439.7 153.055 437.864 151.91 436.332C151.562 436.708 151.189 437.06 150.795 437.388C149.583 438.394 148.229 439.216 146.776 439.825C146.979 440.25 147.164 440.661 147.328 441.049V441.053C147.374 441.161 147.419 441.27 147.462 441.38C149.298 441.174 151.234 441.249 153.11 441.503C153.36 441.537 153.595 441.573 153.818 441.61V441.61ZM142.436 432.574C143.617 434.239 144.707 435.968 145.701 437.753C147.184 437.168 148.41 436.431 149.397 435.61C149.74 435.327 150.063 435.021 150.363 434.694C148.617 433.226 146.409 432.422 144.129 432.426C143.561 432.425 142.995 432.474 142.436 432.572V432.574ZM134.733 439.699C135.559 439.678 136.384 439.629 137.207 439.55C139.196 439.372 141.167 439.039 143.104 438.553C142.092 436.795 140.999 435.084 139.829 433.426C138.579 434.045 137.478 434.926 136.598 436.008C135.719 437.091 135.083 438.349 134.733 439.699ZM136.588 448.235C137.059 447.548 137.677 446.774 138.499 445.932C140.262 444.125 142.343 442.718 144.752 441.942L144.827 441.92C144.627 441.479 144.439 441.084 144.25 440.713C142.023 441.362 139.677 441.767 137.34 441.977C136.2 442.08 135.178 442.125 134.426 442.132C134.424 444.355 135.188 446.51 136.589 448.235H136.588ZM147.773 451.122C147.306 448.763 146.644 446.447 145.794 444.198C143.366 445.08 141.431 446.369 139.936 447.907C139.332 448.516 138.797 449.189 138.338 449.914C140.011 451.162 142.042 451.835 144.129 451.832C145.378 451.833 146.615 451.593 147.773 451.125V451.122ZM150.045 449.818C151.939 448.363 153.229 446.259 153.668 443.912C153.255 443.808 152.733 443.705 152.158 443.625C150.88 443.441 149.583 443.428 148.301 443.585C149.023 445.622 149.605 447.704 150.045 449.819V449.818ZM144.129 454.257C137.43 454.257 132 448.827 132 442.129C132 435.43 137.43 430 144.129 430C150.827 430 156.257 435.43 156.257 442.129C156.257 448.827 150.827 454.257 144.129 454.257Z" fill="#F97C1E"/>
<g filter="url(#filter3_d_1678_1353)">
<circle cx="210" cy="442" r="28" fill="white"/>
</g>
<path d="M210 438.4C209.045 438.4 208.13 438.779 207.454 439.454C206.779 440.13 206.4 441.045 206.4 442C206.4 442.955 206.779 443.87 207.454 444.546C208.13 445.221 209.045 445.6 210 445.6C210.955 445.6 211.87 445.221 212.546 444.546C213.221 443.87 213.6 442.955 213.6 442C213.6 441.045 213.221 440.13 212.546 439.454C211.87 438.779 210.955 438.4 210 438.4ZM210 436C211.591 436 213.117 436.632 214.243 437.757C215.368 438.883 216 440.409 216 442C216 443.591 215.368 445.117 214.243 446.243C213.117 447.368 211.591 448 210 448C208.409 448 206.883 447.368 205.757 446.243C204.632 445.117 204 443.591 204 442C204 440.409 204.632 438.883 205.757 437.757C206.883 436.632 208.409 436 210 436V436ZM217.8 435.7C217.8 436.098 217.642 436.479 217.361 436.761C217.079 437.042 216.698 437.2 216.3 437.2C215.902 437.2 215.521 437.042 215.239 436.761C214.958 436.479 214.8 436.098 214.8 435.7C214.8 435.302 214.958 434.921 215.239 434.639C215.521 434.358 215.902 434.2 216.3 434.2C216.698 434.2 217.079 434.358 217.361 434.639C217.642 434.921 217.8 435.302 217.8 435.7V435.7ZM210 432.4C207.031 432.4 206.546 432.408 205.165 432.47C204.224 432.514 203.593 432.64 203.008 432.868C202.487 433.07 202.111 433.311 201.712 433.712C201.336 434.074 201.047 434.518 200.867 435.008C200.639 435.596 200.513 436.226 200.47 437.165C200.407 438.49 200.4 438.953 200.4 442C200.4 444.969 200.408 445.454 200.47 446.835C200.514 447.774 200.64 448.407 200.867 448.991C201.071 449.513 201.311 449.889 201.709 450.287C202.114 450.69 202.489 450.932 203.005 451.131C203.598 451.36 204.229 451.487 205.165 451.53C206.49 451.593 206.953 451.6 210 451.6C212.969 451.6 213.454 451.592 214.835 451.53C215.773 451.486 216.406 451.36 216.991 451.133C217.511 450.93 217.889 450.689 218.287 450.291C218.692 449.886 218.933 449.511 219.132 448.995C219.36 448.403 219.487 447.771 219.53 446.835C219.593 445.51 219.6 445.047 219.6 442C219.6 439.031 219.592 438.546 219.53 437.165C219.486 436.227 219.36 435.593 219.132 435.008C218.951 434.518 218.663 434.075 218.288 433.712C217.926 433.336 217.483 433.047 216.992 432.867C216.404 432.639 215.773 432.513 214.835 432.47C213.51 432.407 213.047 432.4 210 432.4ZM210 430C213.26 430 213.667 430.012 214.946 430.072C216.224 430.132 217.094 430.332 217.86 430.63C218.652 430.935 219.319 431.348 219.986 432.014C220.597 432.613 221.069 433.339 221.37 434.14C221.666 434.904 221.868 435.776 221.928 437.054C221.984 438.333 222 438.74 222 442C222 445.26 221.988 445.667 221.928 446.946C221.868 448.224 221.666 449.094 221.37 449.86C221.07 450.661 220.597 451.387 219.986 451.986C219.386 452.596 218.661 453.069 217.86 453.37C217.096 453.666 216.224 453.868 214.946 453.928C213.667 453.984 213.26 454 210 454C206.74 454 206.333 453.988 205.054 453.928C203.776 453.868 202.906 453.666 202.14 453.37C201.339 453.069 200.613 452.597 200.014 451.986C199.403 451.387 198.931 450.661 198.63 449.86C198.332 449.096 198.132 448.224 198.072 446.946C198.016 445.667 198 445.26 198 442C198 438.74 198.012 438.333 198.072 437.054C198.132 435.774 198.332 434.906 198.63 434.14C198.93 433.339 199.403 432.613 200.014 432.014C200.613 431.403 201.339 430.931 202.14 430.63C202.906 430.332 203.774 430.132 205.054 430.072C206.333 430.016 206.74 430 210 430Z" fill="#F97C1E"/>
<g filter="url(#filter4_d_1678_1353)">
<circle cx="276" cy="442" r="28" fill="white"/>
</g>
<path d="M279.815 434.42C278.896 434.42 278.014 434.781 277.358 435.425C276.702 436.068 276.325 436.944 276.308 437.863L276.274 439.768C276.272 439.87 276.249 439.971 276.205 440.063C276.162 440.156 276.099 440.238 276.021 440.304C275.944 440.371 275.853 440.42 275.755 440.449C275.657 440.478 275.554 440.486 275.452 440.473L273.564 440.216C271.081 439.878 268.701 438.734 266.417 436.831C265.694 440.834 267.107 443.607 270.509 445.746L272.621 447.074C272.722 447.137 272.805 447.224 272.864 447.327C272.923 447.43 272.956 447.545 272.96 447.664C272.964 447.782 272.939 447.9 272.887 448.007C272.835 448.113 272.758 448.205 272.662 448.275L270.737 449.682C271.882 449.753 272.969 449.702 273.872 449.523C279.577 448.384 283.371 444.091 283.371 437.009C283.371 436.431 282.147 434.42 279.815 434.42V434.42ZM273.89 437.818C273.911 436.653 274.275 435.519 274.938 434.559C275.6 433.6 276.531 432.857 277.613 432.424C278.696 431.991 279.882 431.887 281.023 432.125C282.164 432.362 283.21 432.932 284.03 433.761C284.89 433.755 285.621 433.973 287.257 432.981C286.852 434.964 286.653 435.825 285.789 437.009C285.789 446.251 280.109 450.744 274.346 451.895C270.394 452.683 264.647 451.388 263 449.668C263.839 449.603 267.249 449.236 269.221 447.794C267.553 446.695 260.915 442.789 265.277 432.287C267.324 434.678 269.401 436.305 271.505 437.169C272.905 437.743 273.249 437.731 273.891 437.819L273.89 437.818Z" fill="#F97C1E"/>
<defs>
<filter id="filter0_d_1678_1353" x="34" y="280" width="352" height="90" filterUnits="userSpaceOnUse" color-interpolation-filters="sRGB">
<feFlood flood-opacity="0" result="BackgroundImageFix"/>
<feColorMatrix in="SourceAlpha" type="matrix" values="0 0 0 0 0 0 0 0 0 0 0 0 0 0 0 0 0 0 127 0" result="hardAlpha"/>
<feOffset dy="20"/>
<feGaussianBlur stdDeviation="10"/>
<feComposite in2="hardAlpha" operator="out"/>
<feColorMatrix type="matrix" values="0 0 0 0 0 0 0 0 0 0 0 0 0 0 0 0 0 0 0.05 0"/>
<feBlend mode="normal" in2="BackgroundImageFix" result="effect1_dropShadow_1678_1353"/>
<feBlend mode="normal" in="SourceGraphic" in2="effect1_dropShadow_1678_1353" result="shape"/>
</filter>
<filter id="filter1_d_1678_1353" x="34" y="341" width="352" height="90" filterUnits="userSpaceOnUse" color-interpolation-filters="sRGB">
<feFlood flood-opacity="0" result="BackgroundImageFix"/>
<feColorMatrix in="SourceAlpha" type="matrix" values="0 0 0 0 0 0 0 0 0 0 0 0 0 0 0 0 0 0 127 0" result="hardAlpha"/>
<feOffset dy="20"/>
<feGaussianBlur stdDeviation="10"/>
<feComposite in2="hardAlpha" operator="out"/>
<feColorMatrix type="matrix" values="0 0 0 0 0 0 0 0 0 0 0 0 0 0 0 0 0 0 0.05 0"/>
<feBlend mode="normal" in2="BackgroundImageFix" result="effect1_dropShadow_1678_1353"/>
<feBlend mode="normal" in="SourceGraphic" in2="effect1_dropShadow_1678_1353" result="shape"/>
</filter>
<filter id="filter2_d_1678_1353" x="96" y="414" width="96" height="96" filterUnits="userSpaceOnUse" color-interpolation-filters="sRGB">
<feFlood flood-opacity="0" result="BackgroundImageFix"/>
<feColorMatrix in="SourceAlpha" type="matrix" values="0 0 0 0 0 0 0 0 0 0 0 0 0 0 0 0 0 0 127 0" result="hardAlpha"/>
<feOffset dy="20"/>
<feGaussianBlur stdDeviation="10"/>
<feComposite in2="hardAlpha" operator="out"/>
<feColorMatrix type="matrix" values="0 0 0 0 0 0 0 0 0 0 0 0 0 0 0 0 0 0 0.05 0"/>
<feBlend mode="normal" in2="BackgroundImageFix" result="effect1_dropShadow_1678_1353"/>
<feBlend mode="normal" in="SourceGraphic" in2="effect1_dropShadow_1678_1353" result="shape"/>
</filter>
<filter id="filter3_d_1678_1353" x="162" y="414" width="96" height="96" filterUnits="userSpaceOnUse" color-interpolation-filters="sRGB">
<feFlood flood-opacity="0" result="BackgroundImageFix"/>
<feColorMatrix in="SourceAlpha" type="matrix" values="0 0 0 0 0 0 0 0 0 0 0 0 0 0 0 0 0 0 127 0" result="hardAlpha"/>
<feOffset dy="20"/>
<feGaussianBlur stdDeviation="10"/>
<feComposite in2="hardAlpha" operator="out"/>
<feColorMatrix type="matrix" values="0 0 0 0 0 0 0 0 0 0 0 0 0 0 0 0 0 0 0.05 0"/>
<feBlend mode="normal" in2="BackgroundImageFix" result="effect1_dropShadow_1678_1353"/>
<feBlend mode="normal" in="SourceGraphic" in2="effect1_dropShadow_1678_1353" result="shape"/>
</filter>
<filter id="filter4_d_1678_1353" x="228" y="414" width="96" height="96" filterUnits="userSpaceOnUse" color-interpolation-filters="sRGB">
<feFlood flood-opacity="0" result="BackgroundImageFix"/>
<feColorMatrix in="SourceAlpha" type="matrix" values="0 0 0 0 0 0 0 0 0 0 0 0 0 0 0 0 0 0 127 0" result="hardAlpha"/>
<feOffset dy="20"/>
<feGaussianBlur stdDeviation="10"/>
<feComposite in2="hardAlpha" operator="out"/>
<feColorMatrix type="matrix" values="0 0 0 0 0 0 0 0 0 0 0 0 0 0 0 0 0 0 0.05 0"/>
<feBlend mode="normal" in2="BackgroundImageFix" result="effect1_dropShadow_1678_1353"/>
<feBlend mode="normal" in="SourceGraphic" in2="effect1_dropShadow_1678_1353" result="shape"/>
</filter>
</defs>
</svg>
