<svg width="420" height="601" viewBox="0 0 420 601" fill="none" xmlns="http://www.w3.org/2000/svg">
<rect width="420" height="601" rx="15" fill="#FDF5EE"/>
<ellipse cx="210" cy="115.076" rx="60" ry="60.0198" fill="#F39A52"/>
<g filter="url(#filter0_d_1678_1375)">
<rect x="54" y="359" width="312" height="50" rx="25" fill="white"/>
</g>
<g filter="url(#filter1_d_1678_1375)">
<rect x="54" y="420" width="312" height="50" rx="25" fill="white"/>
</g>
<path d="M156.701 378.001V392.001H158.701V380.121H158.941L162.481 392.001H165.481L169.021 380.121H169.261V392.001H171.261V378.001H167.661L164.101 389.921H163.861L160.301 378.001H156.701Z" fill="black"/>
<path d="M181.423 382.201L178.403 389.641H178.163L175.143 382.201H173.103L177.283 392.181L175.623 396.001H177.663L183.463 382.201H181.423Z" fill="black"/>
<path d="M190.411 378.001L192.351 392.001H195.791L197.891 379.801H198.131L200.231 392.001H203.671L205.611 378.001H203.571L201.971 390.201H201.731L199.631 378.001H196.391L194.291 390.201H194.051L192.451 378.001H190.411Z" fill="black"/>
<path d="M206.646 387.021C206.646 389.981 208.726 392.281 211.766 392.281C214.106 392.281 215.366 390.981 216.106 389.781L214.526 388.881C214.006 389.921 213.166 390.641 211.726 390.641C209.966 390.641 208.726 389.541 208.606 387.781H216.326V386.841C216.326 384.001 214.406 381.881 211.526 381.881C208.686 381.881 206.646 384.141 206.646 387.021ZM208.606 386.261C208.746 384.521 209.806 383.521 211.526 383.521C213.246 383.521 214.326 384.581 214.366 386.261H208.606Z" fill="black"/>
<path d="M218.399 378.001V392.001H220.239V390.461H220.519C221.059 391.361 221.959 392.281 223.879 392.281C226.459 392.281 228.479 390.141 228.479 387.101C228.479 384.061 226.459 381.921 223.879 381.921C221.959 381.921 221.059 382.841 220.519 383.741H220.279V378.001H218.399ZM223.399 383.601C225.279 383.601 226.599 384.861 226.599 387.101C226.599 389.341 225.279 390.601 223.399 390.601C221.479 390.601 220.279 389.261 220.279 387.101C220.279 384.941 221.479 383.601 223.399 383.601Z" fill="black"/>
<path d="M230.367 384.821C230.367 386.681 231.827 387.401 234.027 387.721L234.847 387.841C235.907 388.001 237.167 388.081 237.167 389.101C237.167 390.061 236.167 390.681 234.767 390.681C233.167 390.681 231.907 389.781 231.287 388.301L229.607 389.201C230.367 390.641 231.927 392.281 234.707 392.281C237.227 392.281 239.027 391.001 239.027 389.041C239.027 387.001 237.287 386.461 235.067 386.141L234.247 386.021C233.187 385.861 232.227 385.761 232.227 384.801C232.227 383.961 233.047 383.481 234.147 383.481C235.307 383.481 236.487 384.021 237.567 385.421L238.967 384.421C237.427 382.701 236.107 381.921 234.107 381.921C232.107 381.921 230.367 382.961 230.367 384.821Z" fill="black"/>
<path d="M240.534 379.201C240.534 380.041 241.214 380.681 242.054 380.681C242.894 380.681 243.574 380.041 243.574 379.201C243.574 378.361 242.894 377.721 242.054 377.721C241.214 377.721 240.534 378.361 240.534 379.201ZM242.994 382.201H241.114V392.001H242.994V382.201Z" fill="black"/>
<path d="M244.682 382.201V383.841H247.402V390.321C247.402 391.321 248.082 392.001 249.042 392.001H251.602V390.361H249.802C249.442 390.361 249.282 390.201 249.282 389.801V383.841H252.162V382.201H249.282V378.801H247.402V382.201H244.682Z" fill="black"/>
<path d="M253.384 387.021C253.384 389.981 255.464 392.281 258.504 392.281C260.844 392.281 262.104 390.981 262.844 389.781L261.264 388.881C260.744 389.921 259.904 390.641 258.464 390.641C256.704 390.641 255.464 389.541 255.344 387.781H263.064V386.841C263.064 384.001 261.144 381.881 258.264 381.881C255.424 381.881 253.384 384.141 253.384 387.021ZM255.344 386.261C255.484 384.521 256.544 383.521 258.264 383.521C259.984 383.521 261.064 384.581 261.104 386.261H255.344Z" fill="black"/>
<path d="M145.158 438.586C142.558 438.586 140.478 440.086 140.478 442.466C140.478 445.066 142.298 446.006 144.798 446.546L145.718 446.746C147.498 447.126 148.398 447.666 148.398 449.006C148.398 450.346 147.278 451.346 145.418 451.346C143.118 451.346 141.838 450.126 141.838 447.906V447.426H139.838V448.066C139.838 451.146 141.978 453.146 145.398 453.146C148.278 453.146 150.398 451.526 150.398 448.946C150.398 446.546 148.818 445.426 146.218 444.866L145.298 444.666C143.318 444.226 142.478 443.726 142.478 442.446C142.478 441.206 143.598 440.386 145.158 440.386C146.998 440.386 148.278 441.346 148.278 443.146V443.626H150.278V442.986C150.278 440.126 148.058 438.586 145.158 438.586Z" fill="black"/>
<path d="M152.668 456.866H154.548V451.326H154.788C155.328 452.226 156.228 453.146 158.148 453.146C160.728 453.146 162.748 451.006 162.748 447.966C162.748 444.926 160.728 442.786 158.148 442.786C156.228 442.786 155.328 443.706 154.788 444.606H154.508V443.066H152.668V456.866ZM157.668 451.466C155.748 451.466 154.548 450.126 154.548 447.966C154.548 445.806 155.748 444.466 157.668 444.466C159.548 444.466 160.868 445.726 160.868 447.966C160.868 450.206 159.548 451.466 157.668 451.466Z" fill="black"/>
<path d="M164.274 447.966C164.274 451.006 166.434 453.146 169.314 453.146C172.194 453.146 174.354 451.006 174.354 447.966C174.354 444.926 172.194 442.786 169.314 442.786C166.434 442.786 164.274 444.926 164.274 447.966ZM166.154 447.966C166.154 445.806 167.434 444.506 169.314 444.506C171.194 444.506 172.474 445.806 172.474 447.966C172.474 450.126 171.194 451.426 169.314 451.426C167.434 451.426 166.154 450.126 166.154 447.966Z" fill="black"/>
<path d="M175.298 443.066V444.706H178.018V451.186C178.018 452.186 178.698 452.866 179.658 452.866H182.218V451.226H180.418C180.058 451.226 179.898 451.066 179.898 450.666V444.706H182.778V443.066H179.898V439.666H178.018V443.066H175.298Z" fill="black"/>
<path d="M184.159 440.066C184.159 440.906 184.839 441.546 185.679 441.546C186.519 441.546 187.199 440.906 187.199 440.066C187.199 439.226 186.519 438.586 185.679 438.586C184.839 438.586 184.159 439.226 184.159 440.066ZM186.619 443.066H184.739V452.866H186.619V443.066Z" fill="black"/>
<path d="M188.306 443.066V444.706H191.026V452.866H192.906V444.706H195.706V443.066H192.906V441.066C192.906 440.666 193.066 440.506 193.426 440.506H195.186V438.866H192.706C191.706 438.866 191.026 439.546 191.026 440.586V443.066H188.306Z" fill="black"/>
<path d="M204.715 443.066L201.695 450.506H201.455L198.435 443.066H196.395L200.575 453.046L198.915 456.866H200.955L206.755 443.066H204.715Z" fill="black"/>
<path d="M214.583 438.866V452.866H216.583V447.266H220.023C222.523 447.266 224.343 445.606 224.343 443.066C224.343 440.526 222.583 438.866 220.023 438.866H214.583ZM216.583 440.706H219.803C221.463 440.706 222.343 441.546 222.343 443.066C222.343 444.586 221.423 445.426 219.803 445.426H216.583V440.706Z" fill="black"/>
<path d="M228.142 438.866H226.262V452.866H228.142V438.866Z" fill="black"/>
<path d="M230.629 445.646L232.249 446.386C232.709 445.246 233.649 444.466 235.249 444.466C236.849 444.466 237.789 445.266 237.789 446.606V446.866L234.169 447.206C231.649 447.446 230.429 448.406 230.429 450.186C230.429 451.946 231.849 453.146 234.049 453.146C236.069 453.146 237.089 452.206 237.509 451.326H237.789V452.866H239.629V446.686C239.629 444.326 237.929 442.786 235.289 442.786C232.889 442.786 231.329 444.126 230.629 445.646ZM232.329 450.106C232.329 449.106 233.229 448.766 234.369 448.666L237.789 448.346V448.506C237.789 450.206 236.669 451.586 234.369 451.586C233.069 451.586 232.329 451.026 232.329 450.106Z" fill="black"/>
<path d="M249.129 443.066L246.109 450.506H245.869L242.849 443.066H240.809L244.989 453.046L243.329 456.866H245.369L251.169 443.066H249.129Z" fill="black"/>
<path d="M254.841 438.866H252.961V452.866H254.841V438.866Z" fill="black"/>
<path d="M257.069 440.066C257.069 440.906 257.749 441.546 258.589 441.546C259.429 441.546 260.109 440.906 260.109 440.066C260.109 439.226 259.429 438.586 258.589 438.586C257.749 438.586 257.069 439.226 257.069 440.066ZM259.529 443.066H257.649V452.866H259.529V443.066Z" fill="black"/>
<path d="M262.136 445.686C262.136 447.546 263.596 448.266 265.796 448.586L266.616 448.706C267.676 448.866 268.936 448.946 268.936 449.966C268.936 450.926 267.936 451.546 266.536 451.546C264.936 451.546 263.676 450.646 263.056 449.166L261.376 450.066C262.136 451.506 263.696 453.146 266.476 453.146C268.996 453.146 270.796 451.866 270.796 449.906C270.796 447.866 269.056 447.326 266.836 447.006L266.016 446.886C264.956 446.726 263.996 446.626 263.996 445.666C263.996 444.826 264.816 444.346 265.916 444.346C267.076 444.346 268.256 444.886 269.336 446.286L270.736 445.286C269.196 443.566 267.876 442.786 265.876 442.786C263.876 442.786 262.136 443.826 262.136 445.686Z" fill="black"/>
<path d="M271.763 443.066V444.706H274.483V451.186C274.483 452.186 275.163 452.866 276.123 452.866H278.683V451.226H276.883C276.523 451.226 276.363 451.066 276.363 450.666V444.706H279.243V443.066H276.363V439.666H274.483V443.066H271.763Z" fill="black"/>
<path d="M130.166 208.6L138.038 222.712V231H141.238V222.712L149.11 208.6H145.462L139.83 219H139.446L133.814 208.6H130.166Z" fill="#F39A52"/>
<path d="M148.032 223.16C148.032 228.024 151.488 231.448 156.096 231.448C160.704 231.448 164.16 228.024 164.16 223.16C164.16 218.296 160.704 214.872 156.096 214.872C151.488 214.872 148.032 218.296 148.032 223.16ZM151.04 223.16C151.04 219.704 153.088 217.624 156.096 217.624C159.104 217.624 161.152 219.704 161.152 223.16C161.152 226.616 159.104 228.696 156.096 228.696C153.088 228.696 151.04 226.616 151.04 223.16Z" fill="#F39A52"/>
<path d="M182.211 231V215.32H179.203V223.512C179.203 226.776 177.379 228.632 174.467 228.632C171.907 228.632 170.435 227.224 170.435 224.504V215.32H167.427V224.76C167.427 229.08 170.243 231.256 173.539 231.256C176.643 231.256 178.083 229.816 178.819 228.344H179.267V231H182.211Z" fill="#F39A52"/>
<path d="M189.561 215.32H186.681V231H189.689V221.848C189.689 219.48 190.905 218.2 193.145 218.2H195.897V215.256H194.105C191.833 215.256 190.553 216.216 190.009 217.88H189.561V215.32Z" fill="#F39A52"/>
<path d="M208.37 208.6V231H211.57V211.48H211.954L218.866 231H224.818V208.6H221.618V228.152H221.234L214.258 208.6H208.37Z" fill="#F39A52"/>
<path d="M228.857 219.448L231.449 220.632C232.185 218.808 233.689 217.56 236.249 217.56C238.809 217.56 240.313 218.84 240.313 220.984V221.4L234.521 221.944C230.489 222.328 228.537 223.864 228.537 226.712C228.537 229.528 230.809 231.448 234.329 231.448C237.561 231.448 239.193 229.944 239.865 228.536H240.313V231H243.257V221.112C243.257 217.336 240.537 214.872 236.313 214.872C232.473 214.872 229.977 217.016 228.857 219.448ZM231.577 226.584C231.577 224.984 233.017 224.44 234.841 224.28L240.313 223.768V224.024C240.313 226.744 238.521 228.952 234.841 228.952C232.761 228.952 231.577 228.056 231.577 226.584Z" fill="#F39A52"/>
<path d="M247.556 215.32V231H250.564V221.208C250.564 218.84 252.132 217.624 254.148 217.624C255.972 217.624 257.22 218.648 257.22 220.472V231H260.228V221.208C260.228 218.84 261.7 217.624 263.652 217.624C265.508 217.624 266.884 218.648 266.884 220.472V231H269.892V220.28C269.892 217.048 267.364 215.064 264.58 215.064C262.02 215.064 260.676 216.376 260.036 217.688H259.588C258.82 216.248 257.508 215.064 255.236 215.064C253.156 215.064 251.748 216.024 250.948 217.368H250.5V215.32H247.556Z" fill="#F39A52"/>
<path d="M273.157 223.032C273.157 227.768 276.485 231.448 281.349 231.448C285.093 231.448 287.109 229.368 288.293 227.448L285.765 226.008C284.933 227.672 283.589 228.824 281.285 228.824C278.469 228.824 276.485 227.064 276.293 224.248H288.645V222.744C288.645 218.2 285.573 214.808 280.965 214.808C276.421 214.808 273.157 218.424 273.157 223.032ZM276.293 221.816C276.517 219.032 278.213 217.432 280.965 217.432C283.717 217.432 285.445 219.128 285.509 221.816H276.293Z" fill="#F39A52"/>
<rect opacity="0.67" width="420" height="601" rx="15" fill="black"/>
<g filter="url(#filter2_d_1678_1375)">
<circle cx="144" cy="308" r="28" fill="white"/>
</g>
<path d="M153.818 307.61C153.719 305.7 153.055 303.864 151.91 302.332C151.562 302.708 151.189 303.06 150.795 303.388C149.583 304.394 148.229 305.216 146.776 305.825C146.979 306.25 147.164 306.661 147.328 307.049V307.053C147.374 307.161 147.419 307.27 147.462 307.38C149.298 307.174 151.234 307.249 153.11 307.503C153.36 307.537 153.595 307.573 153.818 307.61V307.61ZM142.436 298.574C143.617 300.239 144.707 301.968 145.701 303.753C147.184 303.168 148.41 302.431 149.397 301.61C149.74 301.327 150.063 301.021 150.363 300.694C148.617 299.226 146.409 298.422 144.129 298.426C143.561 298.425 142.995 298.474 142.436 298.572V298.574ZM134.733 305.699C135.559 305.678 136.384 305.629 137.207 305.55C139.196 305.372 141.167 305.039 143.104 304.553C142.092 302.795 140.999 301.084 139.829 299.426C138.579 300.045 137.478 300.926 136.598 302.008C135.719 303.091 135.083 304.349 134.733 305.699ZM136.588 314.235C137.059 313.548 137.677 312.774 138.499 311.932C140.262 310.125 142.343 308.718 144.752 307.942L144.827 307.92C144.627 307.479 144.439 307.084 144.25 306.713C142.023 307.362 139.677 307.767 137.34 307.977C136.2 308.08 135.178 308.125 134.426 308.132C134.424 310.355 135.188 312.51 136.589 314.235H136.588ZM147.773 317.122C147.306 314.763 146.644 312.447 145.794 310.198C143.366 311.08 141.431 312.369 139.936 313.907C139.332 314.516 138.797 315.189 138.338 315.914C140.011 317.162 142.042 317.835 144.129 317.832C145.378 317.833 146.615 317.593 147.773 317.125V317.122ZM150.045 315.818C151.939 314.363 153.229 312.259 153.668 309.912C153.255 309.808 152.733 309.705 152.158 309.625C150.88 309.441 149.583 309.428 148.301 309.585C149.023 311.622 149.605 313.704 150.045 315.819V315.818ZM144.129 320.257C137.43 320.257 132 314.827 132 308.129C132 301.43 137.43 296 144.129 296C150.827 296 156.257 301.43 156.257 308.129C156.257 314.827 150.827 320.257 144.129 320.257Z" fill="#F97C1E"/>
<g filter="url(#filter3_d_1678_1375)">
<circle cx="210" cy="308" r="28" fill="white"/>
</g>
<path d="M210 304.4C209.045 304.4 208.13 304.779 207.454 305.454C206.779 306.13 206.4 307.045 206.4 308C206.4 308.955 206.779 309.87 207.454 310.546C208.13 311.221 209.045 311.6 210 311.6C210.955 311.6 211.87 311.221 212.546 310.546C213.221 309.87 213.6 308.955 213.6 308C213.6 307.045 213.221 306.13 212.546 305.454C211.87 304.779 210.955 304.4 210 304.4ZM210 302C211.591 302 213.117 302.632 214.243 303.757C215.368 304.883 216 306.409 216 308C216 309.591 215.368 311.117 214.243 312.243C213.117 313.368 211.591 314 210 314C208.409 314 206.883 313.368 205.757 312.243C204.632 311.117 204 309.591 204 308C204 306.409 204.632 304.883 205.757 303.757C206.883 302.632 208.409 302 210 302V302ZM217.8 301.7C217.8 302.098 217.642 302.479 217.361 302.761C217.079 303.042 216.698 303.2 216.3 303.2C215.902 303.2 215.521 303.042 215.239 302.761C214.958 302.479 214.8 302.098 214.8 301.7C214.8 301.302 214.958 300.921 215.239 300.639C215.521 300.358 215.902 300.2 216.3 300.2C216.698 300.2 217.079 300.358 217.361 300.639C217.642 300.921 217.8 301.302 217.8 301.7V301.7ZM210 298.4C207.031 298.4 206.546 298.408 205.165 298.47C204.224 298.514 203.593 298.64 203.008 298.868C202.487 299.07 202.111 299.311 201.712 299.712C201.336 300.074 201.047 300.518 200.867 301.008C200.639 301.596 200.513 302.226 200.47 303.165C200.407 304.49 200.4 304.953 200.4 308C200.4 310.969 200.408 311.454 200.47 312.835C200.514 313.774 200.64 314.407 200.867 314.991C201.071 315.513 201.311 315.889 201.709 316.287C202.114 316.69 202.489 316.932 203.005 317.131C203.598 317.36 204.229 317.487 205.165 317.53C206.49 317.593 206.953 317.6 210 317.6C212.969 317.6 213.454 317.592 214.835 317.53C215.773 317.486 216.406 317.36 216.991 317.133C217.511 316.93 217.889 316.689 218.287 316.291C218.692 315.886 218.933 315.511 219.132 314.995C219.36 314.403 219.487 313.771 219.53 312.835C219.593 311.51 219.6 311.047 219.6 308C219.6 305.031 219.592 304.546 219.53 303.165C219.486 302.227 219.36 301.593 219.132 301.008C218.951 300.518 218.663 300.075 218.288 299.712C217.926 299.336 217.483 299.047 216.992 298.867C216.404 298.639 215.773 298.513 214.835 298.47C213.51 298.407 213.047 298.4 210 298.4ZM210 296C213.26 296 213.667 296.012 214.946 296.072C216.224 296.132 217.094 296.332 217.86 296.63C218.652 296.935 219.319 297.348 219.986 298.014C220.597 298.613 221.069 299.339 221.37 300.14C221.666 300.904 221.868 301.776 221.928 303.054C221.984 304.333 222 304.74 222 308C222 311.26 221.988 311.667 221.928 312.946C221.868 314.224 221.666 315.094 221.37 315.86C221.07 316.661 220.597 317.387 219.986 317.986C219.386 318.596 218.661 319.069 217.86 319.37C217.096 319.666 216.224 319.868 214.946 319.928C213.667 319.984 213.26 320 210 320C206.74 320 206.333 319.988 205.054 319.928C203.776 319.868 202.906 319.666 202.14 319.37C201.339 319.069 200.613 318.597 200.014 317.986C199.403 317.387 198.931 316.661 198.63 315.86C198.332 315.096 198.132 314.224 198.072 312.946C198.016 311.667 198 311.26 198 308C198 304.74 198.012 304.333 198.072 303.054C198.132 301.774 198.332 300.906 198.63 300.14C198.93 299.339 199.403 298.613 200.014 298.014C200.613 297.403 201.339 296.931 202.14 296.63C202.906 296.332 203.774 296.132 205.054 296.072C206.333 296.016 206.74 296 210 296Z" fill="#F97C1E"/>
<g filter="url(#filter4_d_1678_1375)">
<circle cx="276" cy="308" r="28" fill="white"/>
</g>
<path d="M279.815 300.42C278.896 300.42 278.014 300.781 277.358 301.425C276.702 302.068 276.325 302.944 276.308 303.863L276.274 305.768C276.272 305.87 276.249 305.971 276.205 306.063C276.162 306.156 276.099 306.238 276.021 306.304C275.944 306.371 275.853 306.42 275.755 306.449C275.657 306.478 275.554 306.486 275.452 306.473L273.564 306.216C271.081 305.878 268.701 304.734 266.417 302.831C265.694 306.834 267.107 309.607 270.509 311.746L272.621 313.074C272.722 313.137 272.805 313.224 272.864 313.327C272.923 313.43 272.956 313.545 272.96 313.664C272.964 313.782 272.939 313.9 272.887 314.007C272.835 314.113 272.758 314.205 272.662 314.275L270.737 315.682C271.882 315.753 272.969 315.702 273.872 315.523C279.577 314.384 283.371 310.091 283.371 303.009C283.371 302.431 282.147 300.42 279.815 300.42V300.42ZM273.89 303.818C273.911 302.653 274.275 301.519 274.938 300.559C275.6 299.6 276.531 298.857 277.613 298.424C278.696 297.991 279.882 297.887 281.023 298.125C282.164 298.362 283.21 298.932 284.03 299.761C284.89 299.755 285.621 299.973 287.257 298.981C286.852 300.964 286.653 301.825 285.789 303.009C285.789 312.251 280.109 316.744 274.346 317.895C270.394 318.683 264.647 317.388 263 315.668C263.839 315.603 267.249 315.236 269.221 313.794C267.553 312.695 260.915 308.789 265.277 298.287C267.324 300.678 269.401 302.305 271.505 303.169C272.905 303.743 273.249 303.731 273.891 303.819L273.89 303.818Z" fill="#F97C1E"/>
<defs>
<filter id="filter0_d_1678_1375" x="34" y="359" width="352" height="90" filterUnits="userSpaceOnUse" color-interpolation-filters="sRGB">
<feFlood flood-opacity="0" result="BackgroundImageFix"/>
<feColorMatrix in="SourceAlpha" type="matrix" values="0 0 0 0 0 0 0 0 0 0 0 0 0 0 0 0 0 0 127 0" result="hardAlpha"/>
<feOffset dy="20"/>
<feGaussianBlur stdDeviation="10"/>
<feComposite in2="hardAlpha" operator="out"/>
<feColorMatrix type="matrix" values="0 0 0 0 0 0 0 0 0 0 0 0 0 0 0 0 0 0 0.05 0"/>
<feBlend mode="normal" in2="BackgroundImageFix" result="effect1_dropShadow_1678_1375"/>
<feBlend mode="normal" in="SourceGraphic" in2="effect1_dropShadow_1678_1375" result="shape"/>
</filter>
<filter id="filter1_d_1678_1375" x="34" y="420" width="352" height="90" filterUnits="userSpaceOnUse" color-interpolation-filters="sRGB">
<feFlood flood-opacity="0" result="BackgroundImageFix"/>
<feColorMatrix in="SourceAlpha" type="matrix" values="0 0 0 0 0 0 0 0 0 0 0 0 0 0 0 0 0 0 127 0" result="hardAlpha"/>
<feOffset dy="20"/>
<feGaussianBlur stdDeviation="10"/>
<feComposite in2="hardAlpha" operator="out"/>
<feColorMatrix type="matrix" values="0 0 0 0 0 0 0 0 0 0 0 0 0 0 0 0 0 0 0.05 0"/>
<feBlend mode="normal" in2="BackgroundImageFix" result="effect1_dropShadow_1678_1375"/>
<feBlend mode="normal" in="SourceGraphic" in2="effect1_dropShadow_1678_1375" result="shape"/>
</filter>
<filter id="filter2_d_1678_1375" x="96" y="280" width="96" height="96" filterUnits="userSpaceOnUse" color-interpolation-filters="sRGB">
<feFlood flood-opacity="0" result="BackgroundImageFix"/>
<feColorMatrix in="SourceAlpha" type="matrix" values="0 0 0 0 0 0 0 0 0 0 0 0 0 0 0 0 0 0 127 0" result="hardAlpha"/>
<feOffset dy="20"/>
<feGaussianBlur stdDeviation="10"/>
<feComposite in2="hardAlpha" operator="out"/>
<feColorMatrix type="matrix" values="0 0 0 0 0 0 0 0 0 0 0 0 0 0 0 0 0 0 0.05 0"/>
<feBlend mode="normal" in2="BackgroundImageFix" result="effect1_dropShadow_1678_1375"/>
<feBlend mode="normal" in="SourceGraphic" in2="effect1_dropShadow_1678_1375" result="shape"/>
</filter>
<filter id="filter3_d_1678_1375" x="162" y="280" width="96" height="96" filterUnits="userSpaceOnUse" color-interpolation-filters="sRGB">
<feFlood flood-opacity="0" result="BackgroundImageFix"/>
<feColorMatrix in="SourceAlpha" type="matrix" values="0 0 0 0 0 0 0 0 0 0 0 0 0 0 0 0 0 0 127 0" result="hardAlpha"/>
<feOffset dy="20"/>
<feGaussianBlur stdDeviation="10"/>
<feComposite in2="hardAlpha" operator="out"/>
<feColorMatrix type="matrix" values="0 0 0 0 0 0 0 0 0 0 0 0 0 0 0 0 0 0 0.05 0"/>
<feBlend mode="normal" in2="BackgroundImageFix" result="effect1_dropShadow_1678_1375"/>
<feBlend mode="normal" in="SourceGraphic" in2="effect1_dropShadow_1678_1375" result="shape"/>
</filter>
<filter id="filter4_d_1678_1375" x="228" y="280" width="96" height="96" filterUnits="userSpaceOnUse" color-interpolation-filters="sRGB">
<feFlood flood-opacity="0" result="BackgroundImageFix"/>
<feColorMatrix in="SourceAlpha" type="matrix" values="0 0 0 0 0 0 0 0 0 0 0 0 0 0 0 0 0 0 127 0" result="hardAlpha"/>
<feOffset dy="20"/>
<feGaussianBlur stdDeviation="10"/>
<feComposite in2="hardAlpha" operator="out"/>
<feColorMatrix type="matrix" values="0 0 0 0 0 0 0 0 0 0 0 0 0 0 0 0 0 0 0.05 0"/>
<feBlend mode="normal" in2="BackgroundImageFix" result="effect1_dropShadow_1678_1375"/>
<feBlend mode="normal" in="SourceGraphic" in2="effect1_dropShadow_1678_1375" result="shape"/>
</filter>
</defs>
</svg>
